<mxfile host="app.diagrams.net" modified="2023-10-27T11:41:10.209Z" agent="Mozilla/5.0 (Windows NT 10.0; Win64; x64) AppleWebKit/537.36 (KHTML, like Gecko) Chrome/118.0.0.0 Safari/537.36" etag="2DddtAynzj9qYVq2puHy" version="22.0.8" type="device" pages="2">
  <diagram name="Page-1" id="97916047-d0de-89f5-080d-49f4d83e522f">
    <mxGraphModel dx="1912" dy="1000" grid="1" gridSize="10" guides="1" tooltips="1" connect="1" arrows="1" fold="1" page="1" pageScale="1.5" pageWidth="1169" pageHeight="827" background="none" math="0" shadow="0">
      <root>
        <mxCell id="0" />
        <mxCell id="1" parent="0" />
        <mxCell id="2" value="&#xa;HEADER&#xa;" style="rounded=1;fillColor=#dae8fc;strokeColor=#6c8ebf;shadow=1;fontStyle=1;fontSize=14;" parent="1" vertex="1">
          <mxGeometry x="677" y="140" width="200" height="80" as="geometry" />
        </mxCell>
        <mxCell id="3" value="LOGO" style="rounded=1;fillColor=#d5e8d4;strokeColor=#82b366;shadow=1;fontStyle=1;fontSize=14;" parent="1" vertex="1">
          <mxGeometry x="100" y="310" width="140" height="60" as="geometry" />
        </mxCell>
        <mxCell id="29" value="" style="edgeStyle=elbowEdgeStyle;elbow=vertical;strokeWidth=4;endArrow=block;endFill=1;fontStyle=1;strokeColor=#23445D;exitX=0.365;exitY=1.067;exitDx=0;exitDy=0;exitPerimeter=0;" parent="1" source="2" target="3" edge="1">
          <mxGeometry x="22" y="165.5" width="100" height="100" as="geometry">
            <mxPoint x="22" y="265.5" as="sourcePoint" />
            <mxPoint x="122" y="165.5" as="targetPoint" />
            <Array as="points">
              <mxPoint x="580" y="260" />
              <mxPoint x="690" y="280" />
            </Array>
          </mxGeometry>
        </mxCell>
        <mxCell id="47" value="" style="edgeStyle=elbowEdgeStyle;elbow=vertical;strokeWidth=4;endArrow=block;endFill=1;fontStyle=1;strokeColor=#23445D;" parent="1" edge="1">
          <mxGeometry x="72" y="175.5" width="100" height="100" as="geometry">
            <mxPoint x="976" y="856.9705882352941" as="sourcePoint" />
            <mxPoint x="976" y="855.5" as="targetPoint" />
          </mxGeometry>
        </mxCell>
        <mxCell id="Z5ym3yaMEVOBvKQBn_O0-56" value="SLOGAN / MOTO " style="rounded=1;fillColor=#d5e8d4;strokeColor=#82b366;shadow=1;fontStyle=1;fontSize=14;direction=west;" vertex="1" parent="1">
          <mxGeometry x="280" y="310" width="160" height="60" as="geometry" />
        </mxCell>
        <mxCell id="Z5ym3yaMEVOBvKQBn_O0-58" value="" style="edgeStyle=elbowEdgeStyle;elbow=vertical;strokeWidth=4;endArrow=block;endFill=1;fontStyle=1;strokeColor=#23445D;exitX=0.2;exitY=1.008;exitDx=0;exitDy=0;exitPerimeter=0;entryX=0.459;entryY=1.033;entryDx=0;entryDy=0;entryPerimeter=0;" edge="1" parent="1" source="2" target="Z5ym3yaMEVOBvKQBn_O0-56">
          <mxGeometry x="22" y="165.5" width="100" height="100" as="geometry">
            <mxPoint x="710" y="280" as="sourcePoint" />
            <mxPoint x="500" y="300" as="targetPoint" />
            <Array as="points">
              <mxPoint x="610" y="290" />
              <mxPoint x="1082" y="405.5" />
            </Array>
          </mxGeometry>
        </mxCell>
        <mxCell id="Z5ym3yaMEVOBvKQBn_O0-59" value="NAVIGATION MENU" style="rounded=1;fillColor=#d5e8d4;strokeColor=#82b366;shadow=1;fontStyle=1;fontSize=14;direction=west;" vertex="1" parent="1">
          <mxGeometry x="572" y="310" width="270" height="60" as="geometry" />
        </mxCell>
        <mxCell id="Z5ym3yaMEVOBvKQBn_O0-61" value="Register" style="rounded=1;fillColor=#d5e8d4;strokeColor=#82b366;shadow=1;fontStyle=1;fontSize=14;direction=west;" vertex="1" parent="1">
          <mxGeometry x="930" y="310" width="220" height="60" as="geometry" />
        </mxCell>
        <mxCell id="Z5ym3yaMEVOBvKQBn_O0-62" value="" style="edgeStyle=elbowEdgeStyle;elbow=vertical;strokeWidth=4;endArrow=block;endFill=1;fontStyle=1;strokeColor=#23445D;exitX=0.5;exitY=1;exitDx=0;exitDy=0;entryX=0.25;entryY=1;entryDx=0;entryDy=0;" edge="1" parent="1">
          <mxGeometry x="22" y="165.5" width="100" height="100" as="geometry">
            <mxPoint x="778.25" y="220" as="sourcePoint" />
            <mxPoint x="775.75" y="310" as="targetPoint" />
            <Array as="points">
              <mxPoint x="781.25" y="290" />
              <mxPoint x="691.25" y="300" />
              <mxPoint x="1121.25" y="429.5" />
            </Array>
          </mxGeometry>
        </mxCell>
        <mxCell id="Z5ym3yaMEVOBvKQBn_O0-64" value="" style="edgeStyle=elbowEdgeStyle;elbow=vertical;strokeWidth=4;endArrow=block;endFill=1;fontStyle=1;strokeColor=#23445D;entryX=0.5;entryY=1;entryDx=0;entryDy=0;" edge="1" parent="1">
          <mxGeometry x="22" y="165.5" width="100" height="100" as="geometry">
            <mxPoint x="790" y="220" as="sourcePoint" />
            <mxPoint x="1053" y="310" as="targetPoint" />
            <Array as="points">
              <mxPoint x="1043" y="260" />
              <mxPoint x="1708" y="379.5" />
            </Array>
          </mxGeometry>
        </mxCell>
        <mxCell id="Z5ym3yaMEVOBvKQBn_O0-71" value="" style="shape=flexArrow;endArrow=classic;html=1;rounded=0;exitX=0.443;exitY=1.033;exitDx=0;exitDy=0;exitPerimeter=0;" edge="1" parent="1" source="3">
          <mxGeometry width="50" height="50" relative="1" as="geometry">
            <mxPoint x="60" y="500" as="sourcePoint" />
            <mxPoint x="162" y="440" as="targetPoint" />
          </mxGeometry>
        </mxCell>
        <mxCell id="Z5ym3yaMEVOBvKQBn_O0-73" value="Top-left corner for&#xa; easy brand&#xa; recognition.&#xa;- return to home &#xa;page" style="rounded=1;fillColor=#fff2cc;strokeColor=#d6b656;shadow=1;fontStyle=1;fontSize=14;" vertex="1" parent="1">
          <mxGeometry x="100" y="440" width="130" height="220" as="geometry" />
        </mxCell>
        <mxCell id="Z5ym3yaMEVOBvKQBn_O0-75" value="" style="shape=flexArrow;endArrow=classic;html=1;rounded=0;exitX=0.443;exitY=1.033;exitDx=0;exitDy=0;exitPerimeter=0;" edge="1" parent="1">
          <mxGeometry width="50" height="50" relative="1" as="geometry">
            <mxPoint x="1039.5" y="370" as="sourcePoint" />
            <mxPoint x="1039.5" y="438" as="targetPoint" />
          </mxGeometry>
        </mxCell>
        <mxCell id="Z5ym3yaMEVOBvKQBn_O0-77" value="" style="shape=flexArrow;endArrow=classic;html=1;rounded=0;exitX=0.443;exitY=1.033;exitDx=0;exitDy=0;exitPerimeter=0;width=9;endSize=7.67;" edge="1" parent="1">
          <mxGeometry width="50" height="50" relative="1" as="geometry">
            <mxPoint x="720" y="370" as="sourcePoint" />
            <mxPoint x="720" y="438" as="targetPoint" />
          </mxGeometry>
        </mxCell>
        <mxCell id="Z5ym3yaMEVOBvKQBn_O0-78" value="Including options&#xa; like:&#xa;" style="rounded=1;fillColor=#fff2cc;strokeColor=#d6b656;shadow=1;fontStyle=1;fontSize=14;" vertex="1" parent="1">
          <mxGeometry x="540" y="440" width="360" height="170" as="geometry" />
        </mxCell>
        <mxCell id="Z5ym3yaMEVOBvKQBn_O0-80" value="Button for users &#xa;to register an &#xa;account" style="rounded=1;fillColor=#fff2cc;strokeColor=#d6b656;shadow=1;fontStyle=1;fontSize=14;" vertex="1" parent="1">
          <mxGeometry x="980" y="440" width="130" height="220" as="geometry" />
        </mxCell>
        <mxCell id="Z5ym3yaMEVOBvKQBn_O0-82" value="Sign in" style="rounded=1;fillColor=#d5e8d4;strokeColor=#82b366;shadow=1;fontStyle=1;fontSize=14;direction=west;" vertex="1" parent="1">
          <mxGeometry x="1190" y="310" width="200" height="60" as="geometry" />
        </mxCell>
        <mxCell id="Z5ym3yaMEVOBvKQBn_O0-83" value="" style="shape=flexArrow;endArrow=classic;html=1;rounded=0;exitX=0.443;exitY=1.033;exitDx=0;exitDy=0;exitPerimeter=0;" edge="1" parent="1">
          <mxGeometry width="50" height="50" relative="1" as="geometry">
            <mxPoint x="1300" y="370" as="sourcePoint" />
            <mxPoint x="1300" y="438" as="targetPoint" />
          </mxGeometry>
        </mxCell>
        <mxCell id="Z5ym3yaMEVOBvKQBn_O0-84" value="Button for users&#xa;to sign in&#xa;- When you are &#xa;sign you can see&#xa;List your &#xa;property&#xa;- sale your house/&#xa;apartment" style="rounded=1;fillColor=#fff2cc;strokeColor=#d6b656;shadow=1;fontStyle=1;fontSize=14;" vertex="1" parent="1">
          <mxGeometry x="1235" y="440" width="130" height="220" as="geometry" />
        </mxCell>
        <mxCell id="Z5ym3yaMEVOBvKQBn_O0-85" value="" style="edgeStyle=elbowEdgeStyle;elbow=vertical;strokeWidth=4;endArrow=block;endFill=1;fontStyle=1;strokeColor=#23445D;entryX=0.541;entryY=1.05;entryDx=0;entryDy=0;entryPerimeter=0;exitX=0.93;exitY=0.983;exitDx=0;exitDy=0;exitPerimeter=0;" edge="1" parent="1">
          <mxGeometry x="22" y="165.5" width="100" height="100" as="geometry">
            <mxPoint x="877" y="220" as="sourcePoint" />
            <mxPoint x="1295.8000000000002" y="308.36" as="targetPoint" />
            <Array as="points">
              <mxPoint x="1104" y="251.36" />
              <mxPoint x="1937" y="350.86" />
            </Array>
          </mxGeometry>
        </mxCell>
        <mxCell id="tZqhiVmq37mOta4bv3RJ-47" value="" style="edgeStyle=elbowEdgeStyle;elbow=vertical;strokeWidth=4;endArrow=block;endFill=1;fontStyle=1;strokeColor=#23445D;exitX=0.183;exitY=1.005;exitDx=0;exitDy=0;exitPerimeter=0;" edge="1" parent="1" source="Z5ym3yaMEVOBvKQBn_O0-78">
          <mxGeometry x="22" y="165.5" width="100" height="100" as="geometry">
            <mxPoint x="630" y="690" as="sourcePoint" />
            <mxPoint x="530" y="730" as="targetPoint" />
            <Array as="points">
              <mxPoint x="606" y="710" />
              <mxPoint x="460" y="725" />
              <mxPoint x="570" y="745" />
            </Array>
          </mxGeometry>
        </mxCell>
        <mxCell id="tZqhiVmq37mOta4bv3RJ-48" value="" style="edgeStyle=elbowEdgeStyle;elbow=vertical;strokeWidth=4;endArrow=block;endFill=1;fontStyle=1;strokeColor=#23445D;exitX=0.306;exitY=1.014;exitDx=0;exitDy=0;exitPerimeter=0;entryX=0.5;entryY=0;entryDx=0;entryDy=0;" edge="1" parent="1" source="Z5ym3yaMEVOBvKQBn_O0-78" target="tZqhiVmq37mOta4bv3RJ-50">
          <mxGeometry x="22" y="165.5" width="100" height="100" as="geometry">
            <mxPoint x="650" y="700" as="sourcePoint" />
            <mxPoint x="650" y="720" as="targetPoint" />
            <Array as="points" />
          </mxGeometry>
        </mxCell>
        <mxCell id="tZqhiVmq37mOta4bv3RJ-49" value="Find your home" style="rounded=1;fillColor=#fad9d5;strokeColor=#ae4132;shadow=1;fontStyle=1;fontSize=14;" vertex="1" parent="1">
          <mxGeometry x="440" y="730" width="110" height="60" as="geometry" />
        </mxCell>
        <mxCell id="tZqhiVmq37mOta4bv3RJ-50" value="Why... / &#xa;About us" style="rounded=1;fillColor=#fad9d5;strokeColor=#ae4132;shadow=1;fontStyle=1;fontSize=14;" vertex="1" parent="1">
          <mxGeometry x="572" y="730" width="110" height="60" as="geometry" />
        </mxCell>
        <mxCell id="tZqhiVmq37mOta4bv3RJ-51" value="Customer care" style="rounded=1;fillColor=#fad9d5;strokeColor=#ae4132;shadow=1;fontStyle=1;fontSize=14;" vertex="1" parent="1">
          <mxGeometry x="720" y="730" width="110" height="60" as="geometry" />
        </mxCell>
        <mxCell id="tZqhiVmq37mOta4bv3RJ-52" value="Blog" style="rounded=1;fillColor=#fad9d5;strokeColor=#ae4132;shadow=1;fontStyle=1;fontSize=14;" vertex="1" parent="1">
          <mxGeometry x="870" y="730" width="110" height="60" as="geometry" />
        </mxCell>
        <mxCell id="tZqhiVmq37mOta4bv3RJ-53" value="List your &#xa;property" style="rounded=1;fillColor=#fad9d5;strokeColor=#ae4132;shadow=1;fontStyle=1;fontSize=14;" vertex="1" parent="1">
          <mxGeometry x="1020" y="730" width="110" height="60" as="geometry" />
        </mxCell>
        <mxCell id="tZqhiVmq37mOta4bv3RJ-54" value="Contact" style="rounded=1;fillColor=#fad9d5;strokeColor=#ae4132;shadow=1;fontStyle=1;fontSize=14;" vertex="1" parent="1">
          <mxGeometry x="1160" y="730" width="110" height="60" as="geometry" />
        </mxCell>
        <mxCell id="tZqhiVmq37mOta4bv3RJ-55" value="" style="edgeStyle=elbowEdgeStyle;elbow=vertical;strokeWidth=4;endArrow=block;endFill=1;fontStyle=1;strokeColor=#23445D;exitX=0.306;exitY=1.014;exitDx=0;exitDy=0;exitPerimeter=0;entryX=0.75;entryY=0;entryDx=0;entryDy=0;" edge="1" parent="1">
          <mxGeometry x="22" y="165.5" width="100" height="100" as="geometry">
            <mxPoint x="760" y="663" as="sourcePoint" />
            <mxPoint x="765" y="730" as="targetPoint" />
            <Array as="points" />
          </mxGeometry>
        </mxCell>
        <mxCell id="tZqhiVmq37mOta4bv3RJ-56" value="" style="edgeStyle=elbowEdgeStyle;elbow=vertical;strokeWidth=4;endArrow=block;endFill=1;fontStyle=1;strokeColor=#23445D;exitX=0.728;exitY=1.014;exitDx=0;exitDy=0;exitPerimeter=0;entryX=0.75;entryY=0;entryDx=0;entryDy=0;" edge="1" parent="1" source="Z5ym3yaMEVOBvKQBn_O0-78">
          <mxGeometry x="22" y="165.5" width="100" height="100" as="geometry">
            <mxPoint x="922.5" y="663" as="sourcePoint" />
            <mxPoint x="927.5" y="730" as="targetPoint" />
            <Array as="points" />
          </mxGeometry>
        </mxCell>
        <mxCell id="tZqhiVmq37mOta4bv3RJ-57" value="" style="edgeStyle=elbowEdgeStyle;elbow=vertical;strokeWidth=4;endArrow=block;endFill=1;fontStyle=1;strokeColor=#23445D;entryX=0.75;entryY=0;entryDx=0;entryDy=0;exitX=0.817;exitY=1.005;exitDx=0;exitDy=0;exitPerimeter=0;" edge="1" parent="1" source="Z5ym3yaMEVOBvKQBn_O0-78">
          <mxGeometry x="22" y="165.5" width="100" height="100" as="geometry">
            <mxPoint x="860" y="670" as="sourcePoint" />
            <mxPoint x="1077.5" y="730" as="targetPoint" />
            <Array as="points" />
          </mxGeometry>
        </mxCell>
        <mxCell id="tZqhiVmq37mOta4bv3RJ-58" value="" style="edgeStyle=elbowEdgeStyle;elbow=vertical;strokeWidth=4;endArrow=block;endFill=1;fontStyle=1;strokeColor=#23445D;exitX=0.922;exitY=1.018;exitDx=0;exitDy=0;exitPerimeter=0;entryX=0.75;entryY=0;entryDx=0;entryDy=0;" edge="1" parent="1" source="Z5ym3yaMEVOBvKQBn_O0-78">
          <mxGeometry x="22" y="165.5" width="100" height="100" as="geometry">
            <mxPoint x="1130" y="662" as="sourcePoint" />
            <mxPoint x="1217.5" y="730" as="targetPoint" />
            <Array as="points" />
          </mxGeometry>
        </mxCell>
        <mxCell id="tZqhiVmq37mOta4bv3RJ-62" value="" style="shape=flexArrow;endArrow=classic;html=1;rounded=0;exitX=0.443;exitY=1.033;exitDx=0;exitDy=0;exitPerimeter=0;endWidth=8;endSize=6.67;" edge="1" parent="1">
          <mxGeometry width="50" height="50" relative="1" as="geometry">
            <mxPoint x="490" y="790" as="sourcePoint" />
            <mxPoint x="490" y="830" as="targetPoint" />
          </mxGeometry>
        </mxCell>
        <mxCell id="tZqhiVmq37mOta4bv3RJ-65" value="" style="shape=flexArrow;endArrow=classic;html=1;rounded=0;exitX=0.443;exitY=1.033;exitDx=0;exitDy=0;exitPerimeter=0;endWidth=8;endSize=6.67;" edge="1" parent="1">
          <mxGeometry width="50" height="50" relative="1" as="geometry">
            <mxPoint x="626.5" y="790" as="sourcePoint" />
            <mxPoint x="626.5" y="830" as="targetPoint" />
          </mxGeometry>
        </mxCell>
        <mxCell id="tZqhiVmq37mOta4bv3RJ-66" value="" style="shape=flexArrow;endArrow=classic;html=1;rounded=0;exitX=0.443;exitY=1.033;exitDx=0;exitDy=0;exitPerimeter=0;endWidth=8;endSize=6.67;" edge="1" parent="1">
          <mxGeometry width="50" height="50" relative="1" as="geometry">
            <mxPoint x="770" y="790" as="sourcePoint" />
            <mxPoint x="770" y="830" as="targetPoint" />
          </mxGeometry>
        </mxCell>
        <mxCell id="tZqhiVmq37mOta4bv3RJ-67" value="" style="shape=flexArrow;endArrow=classic;html=1;rounded=0;exitX=0.443;exitY=1.033;exitDx=0;exitDy=0;exitPerimeter=0;endWidth=8;endSize=6.67;" edge="1" parent="1">
          <mxGeometry width="50" height="50" relative="1" as="geometry">
            <mxPoint x="1214.5" y="790" as="sourcePoint" />
            <mxPoint x="1214.5" y="830" as="targetPoint" />
          </mxGeometry>
        </mxCell>
        <mxCell id="tZqhiVmq37mOta4bv3RJ-68" value="" style="shape=flexArrow;endArrow=classic;html=1;rounded=0;exitX=0.443;exitY=1.033;exitDx=0;exitDy=0;exitPerimeter=0;endWidth=8;endSize=6.67;" edge="1" parent="1">
          <mxGeometry width="50" height="50" relative="1" as="geometry">
            <mxPoint x="1074.5" y="790" as="sourcePoint" />
            <mxPoint x="1074.5" y="830" as="targetPoint" />
          </mxGeometry>
        </mxCell>
        <mxCell id="tZqhiVmq37mOta4bv3RJ-69" value="" style="shape=flexArrow;endArrow=classic;html=1;rounded=0;exitX=0.443;exitY=1.033;exitDx=0;exitDy=0;exitPerimeter=0;endWidth=8;endSize=6.67;" edge="1" parent="1">
          <mxGeometry width="50" height="50" relative="1" as="geometry">
            <mxPoint x="924.5" y="790" as="sourcePoint" />
            <mxPoint x="924.5" y="830" as="targetPoint" />
          </mxGeometry>
        </mxCell>
        <mxCell id="tZqhiVmq37mOta4bv3RJ-70" value="Search bar with &#xa;more options&#xa;sale/ rent/&#xa;sale your&#xa;house" style="rounded=1;fillColor=#fff2cc;strokeColor=#d6b656;shadow=1;fontStyle=1;fontSize=14;" vertex="1" parent="1">
          <mxGeometry x="440" y="830" width="110" height="220" as="geometry" />
        </mxCell>
        <mxCell id="tZqhiVmq37mOta4bv3RJ-71" value="-heading section -&#xa; Exclusive from&#xa;our blog&#xa;&#xa;-latest&#xa;blog &#xa;posts with a teaser&#xa; image,&#xa; title, brief &#xa;description &#xa;/article type/" style="rounded=1;fillColor=#fff2cc;strokeColor=#d6b656;shadow=1;fontStyle=1;fontSize=12;" vertex="1" parent="1">
          <mxGeometry x="870" y="830" width="110" height="220" as="geometry" />
        </mxCell>
        <mxCell id="tZqhiVmq37mOta4bv3RJ-72" value="Listing your &#xa;saved &#xa;property" style="rounded=1;fillColor=#fff2cc;strokeColor=#d6b656;shadow=1;fontStyle=1;fontSize=14;" vertex="1" parent="1">
          <mxGeometry x="1020" y="830" width="110" height="220" as="geometry" />
        </mxCell>
        <mxCell id="tZqhiVmq37mOta4bv3RJ-73" value="- contacts&#xa;-interactive &#xa;map /office&#xa;location/" style="rounded=1;fillColor=#fff2cc;strokeColor=#d6b656;shadow=1;fontStyle=1;fontSize=14;" vertex="1" parent="1">
          <mxGeometry x="1160" y="830" width="110" height="220" as="geometry" />
        </mxCell>
        <mxCell id="tZqhiVmq37mOta4bv3RJ-74" value="-Our story&#xa;- mission&#xa;-benefits&#xa;- client stories&#xa;" style="rounded=1;fillColor=#fff2cc;strokeColor=#d6b656;shadow=1;fontStyle=1;fontSize=14;" vertex="1" parent="1">
          <mxGeometry x="572" y="830" width="110" height="220" as="geometry" />
        </mxCell>
        <mxCell id="tZqhiVmq37mOta4bv3RJ-75" value="- WHY ....&#xa;Reasons to call ...... &#xa;your new home &#xa;- The Process&#xa;- Calculate taxes&#xa;- Find your broker&#xa;- FAQS&#xa;-how it works -&#xa; Steps: Break  &#xa;down the property listing&#xa; and searching process &#xa;into easy steps like&#xa;     &#39;Register&#39;, &#39;List Your &#xa;Property&#39;,  etc.&#xa; Icons: Use&#xa;     appealing icons for each&#xa; step for &#xa;visual enhancement.&#xa; " style="rounded=1;fillColor=#fff2cc;strokeColor=#d6b656;shadow=1;fontStyle=1;fontSize=12;" vertex="1" parent="1">
          <mxGeometry x="700" y="830" width="150" height="280" as="geometry" />
        </mxCell>
      </root>
    </mxGraphModel>
  </diagram>
  <diagram id="In1wZbawTqbMpnqT8tXX" name="Страница-2">
    <mxGraphModel dx="1434" dy="750" grid="1" gridSize="10" guides="1" tooltips="1" connect="1" arrows="1" fold="1" page="1" pageScale="1" pageWidth="827" pageHeight="1169" math="0" shadow="0">
      <root>
        <mxCell id="0" />
        <mxCell id="1" parent="0" />
        <mxCell id="WnGGEd9kvl-bYeRnzTCv-1" value="MAIN SECTION" style="rounded=1;fillColor=#dae8fc;strokeColor=#6c8ebf;shadow=1;fontStyle=1;fontSize=14;" vertex="1" parent="1">
          <mxGeometry x="270" y="180" width="260" height="80" as="geometry" />
        </mxCell>
        <mxCell id="URemOfOeAjITP1pav5nb-1" value="" style="edgeStyle=elbowEdgeStyle;elbow=vertical;strokeWidth=4;endArrow=block;endFill=1;fontStyle=1;strokeColor=#23445D;" edge="1" parent="1">
          <mxGeometry x="22" y="165.5" width="100" height="100" as="geometry">
            <mxPoint x="400" y="260" as="sourcePoint" />
            <mxPoint x="399.5" y="320" as="targetPoint" />
            <Array as="points">
              <mxPoint x="429.5" y="260" />
              <mxPoint x="769.5" y="340" />
            </Array>
          </mxGeometry>
        </mxCell>
        <mxCell id="98c9zB2Oo4Lg3qPtHcjd-1" value="&#xa; - Image Carousel: Rotating high-quality images of popular or recently listed properties.&#xa;- CTA (Call to Action) Button: &quot;Start Your Property Search&quot;.&#xa;- Quick Search Filters: Allow users to quickly filter by popular criteria like &#39;Houses&#39;, &#39;Apartments&#39;, &#39;For Sale&#39;, &#39;For Rent&#39;, etc.&#xa;" style="rounded=1;fillColor=#d5e8d4;strokeColor=#82b366;shadow=1;fontStyle=1;fontSize=12;" vertex="1" parent="1">
          <mxGeometry x="70" y="320" width="710" height="60" as="geometry" />
        </mxCell>
        <mxCell id="98c9zB2Oo4Lg3qPtHcjd-2" value="Header" style="rounded=1;fillColor=#d5e8d4;strokeColor=#82b366;shadow=1;fontStyle=1;fontSize=14;" vertex="1" parent="1">
          <mxGeometry x="315" y="50" width="170" height="60" as="geometry" />
        </mxCell>
        <mxCell id="98c9zB2Oo4Lg3qPtHcjd-3" value="" style="edgeStyle=elbowEdgeStyle;elbow=vertical;strokeWidth=4;endArrow=block;endFill=1;fontStyle=1;strokeColor=#23445D;" edge="1" parent="1">
          <mxGeometry x="22" y="165.5" width="100" height="100" as="geometry">
            <mxPoint x="399.5" y="110" as="sourcePoint" />
            <mxPoint x="399.5" y="180" as="targetPoint" />
            <Array as="points">
              <mxPoint x="429.5" y="120" />
              <mxPoint x="769.5" y="200" />
            </Array>
          </mxGeometry>
        </mxCell>
        <mxCell id="kxqoF4Z3lR08jDcqPF67-2" value="Featured /TOP/ Listings:&#xa;Section Heading: Such as &quot;Featured Properties&quot;.&#xa; Property Cards: Display a few selected properties with thumbnail images, brief details, and a link to view more.&#xa; View More Button: Link to see all listings.&#xa;" style="rounded=1;fillColor=#d5e8d4;strokeColor=#82b366;shadow=1;fontStyle=1;fontSize=12;" vertex="1" parent="1">
          <mxGeometry x="70" y="420" width="710" height="80" as="geometry" />
        </mxCell>
        <mxCell id="kxqoF4Z3lR08jDcqPF67-3" value="" style="edgeStyle=elbowEdgeStyle;elbow=vertical;strokeWidth=4;endArrow=block;endFill=1;fontStyle=1;strokeColor=#23445D;" edge="1" parent="1">
          <mxGeometry x="22" y="165.5" width="100" height="100" as="geometry">
            <mxPoint x="399.5" y="380" as="sourcePoint" />
            <mxPoint x="399.5" y="420" as="targetPoint" />
            <Array as="points">
              <mxPoint x="389.5" y="390" />
            </Array>
          </mxGeometry>
        </mxCell>
        <mxCell id="bX5scMez5lUn85IxXjba-1" value="Testimonials:&#xa;Section Heading: Such as &quot;They talk about us&quot;.&#xa; User Reviews: Display a few rotating or static user testimonials with their photo, name, and feedback about the platform.&#xa;" style="rounded=1;fillColor=#d5e8d4;strokeColor=#82b366;shadow=1;fontStyle=1;fontSize=12;" vertex="1" parent="1">
          <mxGeometry x="60" y="640" width="710" height="70" as="geometry" />
        </mxCell>
        <mxCell id="bX5scMez5lUn85IxXjba-2" value="" style="edgeStyle=elbowEdgeStyle;elbow=vertical;strokeWidth=4;endArrow=block;endFill=1;fontStyle=1;strokeColor=#23445D;" edge="1" parent="1">
          <mxGeometry x="22" y="165.5" width="100" height="100" as="geometry">
            <mxPoint x="399.5" y="500" as="sourcePoint" />
            <mxPoint x="399.5" y="540" as="targetPoint" />
            <Array as="points">
              <mxPoint x="389.5" y="510" />
            </Array>
          </mxGeometry>
        </mxCell>
        <mxCell id="bX5scMez5lUn85IxXjba-3" value=" - Be first:&#xa;Signup Box: A field to input an email address&#xa; Text: A brief&#xa;     note about the benefits of subscribing, e.g., &quot;Get the latest&#xa;     listings and real estate insights straight to your inbox&quot;.&#xa;" style="rounded=1;fillColor=#fad9d5;strokeColor=#ae4132;shadow=1;fontStyle=1;fontSize=12;" vertex="1" parent="1">
          <mxGeometry x="480" y="230" width="330" height="80" as="geometry" />
        </mxCell>
        <mxCell id="bX5scMez5lUn85IxXjba-4" value="Footer:&#xa;Logo and slogan&#xa;Quick Links: Links to essential pages like &#39;Privacy Policy&#39;, &#39;Terms of Use&#39;, &#39;FAQs&#39;, etc.&#xa; Social Media Icons: Links to the company&#39;s social media profiles.&#xa; Contact&#xa;     Details: Phone number, email, and office address.&#xa; Map: An embedded map showing the office location, if applicable.&#xa;" style="rounded=1;fillColor=#d5e8d4;strokeColor=#82b366;shadow=1;fontStyle=1;fontSize=12;" vertex="1" parent="1">
          <mxGeometry x="70" y="790" width="710" height="120" as="geometry" />
        </mxCell>
        <mxCell id="bX5scMez5lUn85IxXjba-5" value="Chat now section" style="rounded=1;fillColor=#fad9d5;strokeColor=#ae4132;shadow=1;fontStyle=1;fontSize=12;" vertex="1" parent="1">
          <mxGeometry x="570" y="730" width="240" height="40" as="geometry" />
        </mxCell>
        <mxCell id="4AFmP3NKzFR2dCYqERbW-1" value="Why you choose us: Statistics:&#xa;3 continents; ... announced; .... sold properties; ... satisfied customers&#xa;" style="rounded=1;fillColor=#d5e8d4;strokeColor=#82b366;shadow=1;fontStyle=1;fontSize=12;" vertex="1" parent="1">
          <mxGeometry x="59" y="540" width="710" height="60" as="geometry" />
        </mxCell>
        <mxCell id="4AFmP3NKzFR2dCYqERbW-2" value="" style="edgeStyle=elbowEdgeStyle;elbow=vertical;strokeWidth=4;endArrow=block;endFill=1;fontStyle=1;strokeColor=#23445D;" edge="1" parent="1">
          <mxGeometry x="22" y="165.5" width="100" height="100" as="geometry">
            <mxPoint x="399.5" y="600" as="sourcePoint" />
            <mxPoint x="399.5" y="640" as="targetPoint" />
            <Array as="points">
              <mxPoint x="389.5" y="610" />
            </Array>
          </mxGeometry>
        </mxCell>
        <mxCell id="4AFmP3NKzFR2dCYqERbW-3" value="" style="edgeStyle=elbowEdgeStyle;elbow=vertical;strokeWidth=4;endArrow=block;endFill=1;fontStyle=1;strokeColor=#23445D;entryX=0.462;entryY=0.008;entryDx=0;entryDy=0;entryPerimeter=0;exitX=0.476;exitY=1.014;exitDx=0;exitDy=0;exitPerimeter=0;" edge="1" parent="1" source="bX5scMez5lUn85IxXjba-1" target="bX5scMez5lUn85IxXjba-4">
          <mxGeometry x="22" y="165.5" width="100" height="100" as="geometry">
            <mxPoint x="399.5" y="740" as="sourcePoint" />
            <mxPoint x="399.5" y="780" as="targetPoint" />
            <Array as="points" />
          </mxGeometry>
        </mxCell>
        <mxCell id="4AFmP3NKzFR2dCYqERbW-4" value="Visual and Interactive Elements:&#xa;Interactive Map: Consider adding an interactive map where users can see properties in different areas.&#xa; Animations/Transitions: Subtle animations when hovering over property cards, buttons, etc., can enhance user engagement.&#xa;" style="rounded=1;fillColor=#fad7ac;strokeColor=#b46504;shadow=1;fontStyle=1;fontSize=12;" vertex="1" parent="1">
          <mxGeometry x="10" y="940" width="710" height="70" as="geometry" />
        </mxCell>
        <mxCell id="4AFmP3NKzFR2dCYqERbW-5" value="SEO and Performance Considerations:&#xa;Optimized Images: Ensure images are compressed and optimized for web use without compromising quality.&#xa; Meta Tags: Relevant meta tags for search engines.&#xa; Fast Loading: Ensure the website loads quickly by optimizing backend queries and frontend resources.&#xa;" style="rounded=1;fillColor=#fad7ac;strokeColor=#b46504;shadow=1;fontStyle=1;fontSize=12;" vertex="1" parent="1">
          <mxGeometry x="100" y="1030" width="710" height="80" as="geometry" />
        </mxCell>
      </root>
    </mxGraphModel>
  </diagram>
</mxfile>
